# xmcd CD database file
#
# Track frame offsets:
#	150
#	16369
#	34802
#	50811
#	74299
#	92167
#	105133
#	122112
#	138331
#	155348
#	174342
#
# Disc length: 2519 seconds
#
# Revision: 1
# Processed by: cddbd v1.5.2PL0 Copyright (c) Steve Scherf et al.
# Submitted via: CDex 1.51
#
DISCID=8b09d50b
DTITLE=Brendon Ham - This Is The Life
DYEAR=2000
DGENRE=Country
TTITLE0=Brendon Ham - This Is The Life
TTITLE1=Brendon Ham - If Happiness Is You
TTITLE2=Brendon Ham - Wild Side Of Life
TTITLE3=Brendon Ham - Linda On My Mind
TTITLE4=Brendon Ham - Dreams
TTITLE5=Brendon Ham - Drivin
TTITLE6=Brendon Ham - Times Been Killing Me
TTITLE7=Brendon Ham - Steambeat
TTITLE8=Brendon Ham - Drink Her Off My Mind
TTITLE9=Brendon Ham - On The Road To Cheltenham
TTITLE10=Brendon Ham - Heartland
EXTD=YEAR: 2000
EXTT0=
EXTT1=
EXTT2=
EXTT3=
EXTT4=
EXTT5=
EXTT6=
EXTT7=
EXTT8=
EXTT9=
EXTT10=
PLAYORDER=
